<mxfile host="app.diagrams.net" modified="2023-10-28T16:46:28.926Z" agent="Mozilla/5.0 (Windows NT 10.0; Win64; x64) AppleWebKit/537.36 (KHTML, like Gecko) Chrome/118.0.0.0 Safari/537.36" version="21.7.1" etag="MPL75kaAkCTcOO8y1niS" type="github">
  <diagram name="Page-1" id="lR2giqc3sK80b5AS6rJD">
    <mxGraphModel>
      <root>
        <mxCell id="0" />
        <mxCell id="1" parent="0" />
      </root>
    </mxGraphModel>
  </diagram>
</mxfile>
